# xmcd CD database file
#
# Track frame offsets:
#	150
#	13395
#	29972
#	45884
#	61632
#	75145
#	92030
#	104746
#	121093
#	133146
#	146294
#	162007
#	173759
#	187009
#	201210
#	214906
#	227164
#	239926
#	252749
#	266915
#
# Disc length: 3811 seconds
#
# Revision: 0
# Processed by: cddbd v1.5.1PL0 Copyright (c) Steve Scherf et al.
# Submitted via: CDex 1.51
#
DISCID=260ee114
DTITLE=Frank Sinatra - Portrait of Sinatra - Disk 1
DYEAR=1977
DGENRE=Jazz
TTITLE0=Let's Face the Music and Dance
TTITLE1=Nancy (With the Laughing Face)
TTITLE2=I've Got You Under My Skin
TTITLE3=Let Me Try Again
TTITLE4=Fly Me to the Moon
TTITLE5=All or Nothing at All
TTITLE6=For Once in My Life
TTITLE7=Bonita
TTITLE8=My Kind of Town
TTITLE9=Call Me Irresponsible
TTITLE10=All the Way
TTITLE11=Strangers in the Night
TTITLE12=Didn't We
TTITLE13=Come Fly With Me
TTITLE14=Second Time Around
TTITLE15=In the Wee Small Hours of the Morning
TTITLE16=Bad, Bad Leroy Brown
TTITLE17=Softly, As I Leave You
TTITLE18=Cycles
TTITLE19=Send in the Clowns
EXTD=YEAR: 1977
EXTT0=
EXTT1=
EXTT2=
EXTT3=
EXTT4=
EXTT5=
EXTT6=
EXTT7=
EXTT8=
EXTT9=
EXTT10=
EXTT11=
EXTT12=
EXTT13=
EXTT14=
EXTT15=
EXTT16=
EXTT17=
EXTT18=
EXTT19=
PLAYORDER=
